#!OML:ASF X:\für Bonn\!DataBase\2005_08_12_Daniel\c3d\Daniel.ASF
:FULLY-SPECIFIED
:DEGREES
79
root 15.0299 16.0925 0.455127 -738.431 -69.6913 734.57
lowerback 6.83646 -10.1452 -4.74741
upperback 2.89036 -13.8913 -2.13588
thorax -0.173549 -7.002 1.23539
lowerneck 4.99076 4.62903 0.389661
upperneck 5.59292 6.18262 -4.84027
head 1.07932 2.99062 -1.59902
rclavicle -5.01807e-014 2.08724e-015
rhumerus -55.9304 -3.0217 -82.914
rradius 39.1452
rwrist 8.32372
rhand -25.9048 5.0785
rfingers 7.12502
rthumb 0.637646 -24.9003
lclavicle -5.01807e-014 2.08724e-015
lhumerus -15.3078 9.80126 82.36
lradius 123.258
lwrist 200.177
lhand -5.75194 17.4284
lfingers 7.12502
lthumb 20.0708 46.4117
rfemur -40.1763 1.10093 -1.31279
rtibia 38.2404
rfoot -18.9369 -8.83334
rtoes -12.4518
lfemur 19.6573 -12.7634 -28.8709
ltibia 28.9083
lfoot -41.4505 11.0707
ltoes -19.5779
80
root 14.8894 16.0689 0.440814 -739.162 -69.5905 735.393
lowerback 6.79074 -10.4148 -4.86077
upperback 2.79061 -14.257 -2.14312
thorax -0.207712 -7.18243 1.29907
lowerneck 4.97561 4.84949 0.486839
upperneck 5.40821 6.4844 -5.13913
head 1.04804 3.14454 -1.71314
rclavicle -2.60656e-014 -3.47873e-015
rhumerus -56.7205 -3.06519 -82.4026
rradius 38.7739
rwrist 8.44913
rhand -25.1405 4.22216
rfingers 7.12502
rthumb 1.3759 -25.7531
lclavicle -2.60656e-014 -3.47873e-015
lhumerus -14.4014 10.2383 82.5476
lradius 123.522
lwrist 200.25
lhand -5.68169 17.7498
lfingers 7.12502
lthumb 20.1383 46.726
rfemur -40.1754 2.30323 -2.50351
rtibia 37.3387
rfoot -20.1986 -10.3717
rtoes -10.3941
lfemur 20.3697 -12.7233 -29.0099
ltibia 28.3612
lfoot -41.11 10.9291
ltoes -19.7556
81
root 14.7436 16.0446 0.423951 -739.741 -69.4403 736.111
lowerback 6.6963 -10.7048 -4.94933
upperback 2.67233 -14.6455 -2.14031
thorax -0.235771 -7.37353 1.35258
lowerneck 4.90935 5.07482 0.611453
upperneck 5.25686 6.79564 -5.44008
head 1.03855 3.30252 -1.83132
rclavicle 4.38134e-014 -4.67144e-015
rhumerus -57.5217 -3.00438 -81.9737
rradius 38.4074
rwrist 8.46214
rhand -24.4461 3.71193
rfingers 7.12502
rthumb 2.04657 -26.258
lclavicle 4.38134e-014 -4.67144e-015
lhumerus -13.4814 10.625 82.7295
lradius 123.79
lwrist 200.416
lhand -5.59627 18.0196
lfingers 7.12502
lthumb 20.2204 46.9872
rfemur -40.1814 3.4646 -3.65843
rtibia 36.5174
rfoot -21.6102 -11.955
rtoes -8.38093
lfemur 20.9974 -12.7305 -29.0892
ltibia 27.8987
lfoot -40.7587 10.7512
ltoes -19.9266
82
root 14.5924 16.0199 0.404245 -740.214 -69.2669 736.778
lowerback 6.53511 -10.9912 -5.03233
upperback 2.54866 -15.024 -2.12001
thorax -0.229514 -7.56027 1.40483
lowerneck 4.71711 5.28526 0.706504
upperneck 5.17761 7.08997 -5.71277
head 1.07152 3.44846 -1.93098
rclavicle -4.80469e-014 -6.41081e-015
rhumerus -58.3345 -2.89915 -81.5978
rradius 38.0719
rwrist 8.44574
rhand -23.9 3.443
rfingers 7.12502
rthumb 2.57397 -26.5212
lclavicle -4.80469e-014 -6.41081e-015
lhumerus -12.5982 10.887 82.9506
lradius 124.095
lwrist 200.595
lhand -5.47747 18.2073
lfingers 7.12502
lthumb 20.3346 47.1627
rfemur -40.1994 4.55675 -4.75146
rtibia 35.7678
rfoot -22.9973 -13.5528
rtoes -7.72133
lfemur 21.4875 -12.7301 -29.1064
ltibia 27.5411
lfoot -40.3688 10.565
ltoes -20.259
83
root 14.4361 15.9965 0.383039 -740.583 -69.0517 737.372
lowerback 6.35426 -11.2957 -5.0954
upperback 2.39666 -15.4246 -2.09292
thorax -0.243042 -7.75663 1.45232
lowerneck 4.47039 5.49822 0.803833
upperneck 5.15237 7.39017 -5.96914
head 1.13181 3.59509 -2.02315
rclavicle 1.76472e-014 1.1983e-014
rhumerus -59.1675 -2.71407 -81.2936
rradius 37.7393
rwrist 8.45301
rhand -23.4878 3.42185
rfingers 7.12502
rthumb 2.97202 -26.5372
lclavicle 1.76472e-014 1.1983e-014
lhumerus -11.8894 11.0791 83.1581
lradius 124.425
lwrist 200.809
lhand -5.31678 18.4677
lfingers 7.12502
lthumb 20.489 47.4066
rfemur -40.1696 5.45078 -5.7199
rtibia 35.1066
rfoot -24.2795 -14.9996
rtoes -7.69919
lfemur 21.8476 -12.7395 -29.0656
ltibia 27.2903
lfoot -39.9208 10.3797
ltoes -20.6835
84
root 14.2742 15.9743 0.359627 -740.853 -68.8369 737.896
lowerback 6.12074 -11.6022 -5.15479
upperback 2.24623 -15.8235 -2.04315
thorax -0.22016 -7.95317 1.50523
lowerneck 4.11664 5.71986 0.887947
upperneck 5.19715 7.70628 -6.21682
head 1.23375 3.74568 -2.10539
rclavicle 2.12824e-014 -1.55797e-014
rhumerus -59.9356 -2.57053 -80.9538
rradius 37.3709
rwrist 8.62389
rhand -23.078 3.62929
rfingers 7.12502
rthumb 3.36781 -26.3239
lclavicle 2.12824e-014 -1.55797e-014
lhumerus -11.295 11.2565 83.4111
lradius 124.786
lwrist 200.961
lhand -5.21093 18.7709
lfingers 7.12502
lthumb 20.5907 47.6988
rfemur -40.1275 6.07048 -6.49461
rtibia 34.5767
rfoot -25.3837 -16.1425
rtoes -7.61774
lfemur 22.1109 -12.7251 -28.9549
ltibia 27.1158
lfoot -39.3981 10.215
ltoes -21.1832
85
root 14.1087 15.9539 0.33467 -741.023 -68.6343 738.353
lowerback 5.84757 -11.9091 -5.19419
upperback 2.08048 -16.2191 -1.97204
thorax -0.190113 -8.14777 1.55923
lowerneck 3.74663 5.94232 0.963299
upperneck 5.24048 8.02384 -6.46682
head 1.3396 3.89591 -2.18546
rclavicle 8.28621e-014 1.28713e-014
rhumerus -60.6557 -2.37015 -80.6549
rradius 37.0025
rwrist 8.87413
rhand -22.7075 3.9785
rfingers 7.12502
rthumb 3.72559 -25.9687
lclavicle 8.28621e-014 1.28713e-014
lhumerus -10.69 11.418 83.7488
lradius 125.127
lwrist 200.961
lhand -5.08802 19.0343
lfingers 7.12502
lthumb 20.7088 47.9494
rfemur -40.1134 6.39728 -7.05771
rtibia 34.2221
rfoot -26.2645 -16.9971
rtoes -7.90968
lfemur 22.3248 -12.7269 -28.7963
ltibia 26.9811
lfoot -38.8508 10.0065
ltoes -21.5981
86
root 13.9393 15.9355 0.307858 -741.179 -68.4562 738.788
lowerback 5.58033 -12.1958 -5.22922
upperback 1.91346 -16.5882 -1.90068
thorax -0.166339 -8.32895 1.60951
lowerneck 3.31935 6.15851 1.07034
upperneck 5.3444 8.33792 -6.70278
head 1.47721 4.042 -2.26291
rclavicle 3.06687e-014 3.27995e-015
rhumerus -61.3208 -2.22026 -80.3648
rradius 36.6208
rwrist 9.21424
rhand -22.2396 4.42192
rfingers 7.12502
rthumb 4.17741 -25.5169
lclavicle 3.06687e-014 3.27995e-015
lhumerus -10.131 11.5417 84.1255
lradius 125.469
lwrist 200.916
lhand -5.05268 19.2429
lfingers 7.12502
lthumb 20.7428 48.1543
rfemur -40.132 6.40014 -7.40034
rtibia 34.0725
rfoot -26.7873 -17.4647
rtoes -8.81659
lfemur 22.5504 -12.7225 -28.6087
ltibia 26.8574
lfoot -38.287 9.75779
ltoes -22.0831
87
root 13.7664 15.9224 0.280856 -741.255 -68.3241 739.16
lowerback 5.28576 -12.4775 -5.22755
upperback 1.73307 -16.9467 -1.80614
thorax -0.144775 -8.50448 1.65764
lowerneck 2.83637 6.38019 1.13457
upperneck 5.49975 8.6608 -6.90747
head 1.63983 4.18868 -2.31896
rclavicle -1.67973e-014 1.03368e-014
rhumerus -61.9179 -2.07401 -80.0569
rradius 36.2657
rwrist 9.68417
rhand -21.5906 4.94511
rfingers 7.12502
rthumb 4.80409 -24.9804
lclavicle -1.67973e-014 1.03368e-014
lhumerus -9.64167 11.6316 84.4903
lradius 125.829
lwrist 200.704
lhand -4.9787 19.3846
lfingers 7.12502
lthumb 20.8139 48.2882
rfemur -40.2304 6.14785 -7.53776
rtibia 34.1175
rfoot -26.808 -17.6758
rtoes -10.1983
lfemur 22.7595 -12.6977 -28.3697
ltibia 26.7314
lfoot -37.6565 9.49746
ltoes -22.5116
88
root 13.5902 15.9115 0.251217 -741.299 -68.2401 739.498
lowerback 4.97983 -12.7439 -5.2177
upperback 1.5556 -17.284 -1.70984
thorax -0.116476 -8.66968 1.69761
lowerneck 2.36515 6.60188 1.25427
upperneck 5.63948 8.98581 -7.14361
head 1.80243 4.33685 -2.39429
rclavicle 9.32052e-014 -9.54166e-015
rhumerus -62.4588 -1.96694 -79.7729
rradius 35.9632
rwrist 10.3115
rhand -20.777 5.46614
rfingers 7.12502
rthumb 5.58962 -24.4401
lclavicle 9.32052e-014 -9.54166e-015
lhumerus -9.22162 11.6611 84.8015
lradius 126.171
lwrist 200.433
lhand -4.8181 19.4438
lfingers 7.12502
lthumb 20.9682 48.3304
rfemur -40.3809 5.60126 -7.4567
rtibia 34.3142
rfoot -26.2541 -17.5511
rtoes -11.6483
lfemur 22.9656 -12.6462 -28.0763
ltibia 26.6252
lfoot -37.026 9.18091
ltoes -22.9198
89
root 13.4109 15.9017 0.218496 -741.328 -68.2448 739.81
lowerback 4.67249 -12.9767 -5.19633
upperback 1.37301 -17.5757 -1.58661
thorax -0.0899338 -8.81212 1.75542
lowerneck 1.87376 6.8253 1.31754
upperneck 5.80612 9.31281 -7.34512
head 1.97488 4.48308 -2.44605
rclavicle 1.901e-013 -2.18663e-015
rhumerus -62.8927 -1.81339 -79.5335
rradius 35.6408
rwrist 10.8918
rhand -19.8135 6.05042
rfingers 7.12502
rthumb 6.51988 -23.8292
lclavicle 1.901e-013 -2.18663e-015
lhumerus -8.90957 11.6091 85.066
lradius 126.531
lwrist 200.093
lhand -4.62305 19.4987
lfingers 7.12502
lthumb 21.1555 48.3645
rfemur -40.6002 4.85873 -7.17236
rtibia 34.61
rfoot -25.1244 -17.1949
rtoes -12.4709
lfemur 23.1662 -12.5566 -27.7381
ltibia 26.5545
lfoot -36.3247 8.86169
ltoes -23.4234
90
root 13.2303 15.8899 0.183644 -741.348 -68.3257 740.079
lowerback 4.39011 -13.1889 -5.10606
upperback 1.19504 -17.8393 -1.47633
thorax -0.0976402 -8.93969 1.77481
lowerneck 1.43863 7.04956 1.36993
upperneck 5.94099 9.63742 -7.51331
head 2.12633 4.6297 -2.48595
rclavicle -7.7526e-015 -7.55382e-015
rhumerus -63.2569 -1.70505 -79.3162
rradius 35.3155
rwrist 11.5013
rhand -18.7661 6.71252
rfingers 7.12502
rthumb 7.53088 -23.1334
lclavicle -7.7526e-015 -7.55382e-015
lhumerus -8.70153 11.5193 85.2587
lradius 126.887
lwrist 199.736
lhand -4.4031 19.5002
lfingers 7.12502
lthumb 21.3668 48.3421
rfemur -40.8557 3.97581 -6.71394
rtibia 34.9699
rfoot -23.4368 -16.6528
rtoes -12.3545
lfemur 23.3776 -12.4327 -27.3578
ltibia 26.5271
lfoot -35.5313 8.5347
ltoes -24.0072
91
root 13.0461 15.8778 0.146382 -741.326 -68.4979 740.294
lowerback 4.07448 -13.3782 -4.98617
upperback 1.03032 -18.0689 -1.34851
thorax -0.0789515 -9.05132 1.78573
lowerneck 1.08953 7.27272 1.43026
upperneck 6.03594 9.958 -7.70935
head 2.25322 4.77576 -2.53891
rclavicle 1.41162e-013 -7.95139e-016
rhumerus -63.5279 -1.5998 -79.1182
rradius 34.9843
rwrist 12.0454
rhand -17.6679 7.43639
rfingers 7.12502
rthumb 8.59084 -22.3688
lclavicle 1.41162e-013 -7.95139e-016
lhumerus -8.59731 11.4197 85.4573
lradius 127.227
lwrist 199.373
lhand -4.23562 19.5314
lfingers 7.12502
lthumb 21.5277 48.355
rfemur -41.1847 3.08793 -6.14014
rtibia 35.3803
rfoot -21.451 -16.0023
rtoes -11.5619
lfemur 23.5833 -12.2458 -26.9042
ltibia 26.5161
lfoot -34.6405 8.18484
ltoes -24.635
